<?xml version="1.0" encoding="UTF-8" standalone="no"?>
<svg
   xmlns:dc="http://purl.org/dc/elements/1.1/"
   xmlns:cc="http://creativecommons.org/ns#"
   xmlns:rdf="http://www.w3.org/1999/02/22-rdf-syntax-ns#"
   xmlns:svg="http://www.w3.org/2000/svg"
   xmlns="http://www.w3.org/2000/svg"
   xmlns:xlink="http://www.w3.org/1999/xlink"
   xmlns:sodipodi="http://sodipodi.sourceforge.net/DTD/sodipodi-0.dtd"
   xmlns:inkscape="http://www.inkscape.org/namespaces/inkscape"
   inkscape:version="1.0 (4035a4fb49, 2020-05-01)"
   sodipodi:docname="egel-white-black.svg"
   xml:space="preserve"
   style="enable-background:new 0 0 511.993 511.993;"
   viewBox="0 0 511.993 511.993"
   y="0px"
   x="0px"
   id="Layer_1"
   version="1.1"><metadata
   id="metadata55"><rdf:RDF><cc:Work
       rdf:about=""><dc:format>image/svg+xml</dc:format><dc:type
         rdf:resource="http://purl.org/dc/dcmitype/StillImage" /><dc:title /></cc:Work></rdf:RDF></metadata><defs
   id="defs53"><linearGradient
     id="linearGradient920"
     inkscape:collect="always"><stop
       id="stop916"
       offset="0"
       style="stop-color:#000000;stop-opacity:1;" /><stop
       id="stop918"
       offset="1"
       style="stop-color:#000000;stop-opacity:0;" /></linearGradient><linearGradient
     gradientUnits="userSpaceOnUse"
     y2="171.50175"
     x2="158.84765"
     y1="171.50175"
     x1="136.84029"
     id="linearGradient922"
     xlink:href="#linearGradient920"
     inkscape:collect="always" /></defs><sodipodi:namedview
   inkscape:current-layer="layer1"
   inkscape:window-maximized="1"
   inkscape:window-y="0"
   inkscape:window-x="0"
   inkscape:cy="343.71147"
   inkscape:cx="240.52269"
   inkscape:zoom="1.7599891"
   inkscape:pagecheckerboard="true"
   showgrid="false"
   id="namedview51"
   inkscape:window-height="1016"
   inkscape:window-width="1920"
   inkscape:pageshadow="2"
   inkscape:pageopacity="1"
   guidetolerance="10"
   gridtolerance="10"
   objecttolerance="10"
   borderopacity="1"
   bordercolor="#666666"
   pagecolor="#060000"
   inkscape:document-rotation="0" />
<g
   inkscape:label="Layer 1"
   id="layer1"
   inkscape:groupmode="layer"><rect
     y="-0.55486852"
     x="-2.0663302"
     height="515.62152"
     width="517.94531"
     id="rect858"
     style="fill:#000000;stroke:#f8f6ff" /></g><g
   style="fill-opacity:1;fill:#ffffff"
   id="g6">
	<g
   style="fill-opacity:1;fill:#ffffff"
   id="g4">
		<path
   style="fill-opacity:1;fill:#ffffff"
   id="path2"
   d="M155.543,163.373c-4.242-4.02-10.942-3.839-14.964,0.404l-0.869,0.922c-4.002,4.26-3.793,10.96,0.469,14.962    c2.043,1.918,4.646,2.87,7.244,2.87c2.821,0,5.634-1.121,7.718-3.339l0.807-0.854    C159.967,174.094,159.786,167.395,155.543,163.373z" />
	</g>
</g>
<g
   id="g12">
	<g
   style="fill:#ffffff;fill-opacity:1"
   id="g10">
		<path
   style="fill:#ffffff;fill-opacity:1"
   id="path8"
   d="M510.238,274.636c-17.174-26.006-42.564-40.998-58.664-48.434l28.149-30.653c2.615-2.846,3.469-6.894,2.229-10.555    c-1.24-3.661-4.377-6.355-8.183-7.028c-31.436-5.555-53.81-4.784-68.347-2.617l13.642-39.706c1.072-3.12,0.628-6.564-1.202-9.31    c-1.83-2.747-4.836-4.481-8.13-4.693c-37.003-2.37-63.698,9.531-79.411,19.744l-2.742-29.827    c-0.518-5.638-5.38-9.835-11.033-9.605c-38.212,1.781-70.213,22.859-90.288,40.165l2.78-22.279    c0.463-3.701-1.057-7.37-3.999-9.662c-2.943-2.292-6.873-2.864-10.347-1.513c-0.992,0.386-24.63,9.769-55.043,36.663    c-4.379,3.873-4.79,10.563-0.918,14.941c3.873,4.38,10.563,4.79,14.942,0.918c12.315-10.89,23.382-18.609,31.843-23.812    l-4.101,32.863c-0.586,4.698,2.022,9.208,6.382,11.053c4.359,1.844,9.417,0.566,12.382-3.125    c0.396-0.492,37.675-46.237,87.295-54.038l3.564,38.768c0.384,4.182,3.204,7.741,7.188,9.071    c3.982,1.328,8.376,0.179,11.197-2.933c0.242-0.268,22.482-24.242,64.847-26.376l-15.254,44.398    c-0.008,0.024-0.013,0.049-0.021,0.073c-0.095,0.285-0.178,0.572-0.248,0.861c-0.015,0.06-0.031,0.122-0.044,0.183    c-0.061,0.272-0.11,0.546-0.149,0.821c-0.012,0.078-0.024,0.157-0.034,0.235c-0.031,0.259-0.05,0.519-0.061,0.779    c-0.004,0.088-0.011,0.176-0.013,0.265c-0.005,0.258,0.002,0.518,0.016,0.776c0.004,0.081,0.005,0.163,0.012,0.243    c0.02,0.275,0.055,0.549,0.097,0.823c0.008,0.057,0.015,0.114,0.024,0.172c0.052,0.301,0.117,0.599,0.196,0.895    c0.006,0.025,0.012,0.051,0.019,0.076c0.086,0.319,0.187,0.632,0.303,0.942c0.001,0.003,0.002,0.006,0.003,0.01    c0.117,0.313,0.25,0.62,0.398,0.923c0.002,0.003,0.003,0.007,0.005,0.011c0.14,0.285,0.293,0.563,0.46,0.838    c0.015,0.024,0.029,0.049,0.043,0.073c0.15,0.243,0.313,0.479,0.486,0.713c0.04,0.055,0.079,0.11,0.121,0.164    c0.153,0.199,0.317,0.393,0.485,0.583c0.071,0.08,0.142,0.16,0.215,0.238c0.072,0.076,0.134,0.157,0.21,0.232    c0.12,0.12,0.245,0.228,0.368,0.34c0.03,0.028,0.059,0.056,0.09,0.083c1.993,1.774,4.493,2.668,6.999,2.675    c0.011,0,0.022,0.001,0.034,0.001c0.18,0,0.358-0.012,0.537-0.021c0.08-0.004,0.161-0.003,0.241-0.01    c0.168-0.013,0.334-0.035,0.502-0.055c0.105-0.013,0.21-0.021,0.314-0.037c0.123-0.019,0.246-0.047,0.368-0.069    c0.148-0.028,0.297-0.053,0.446-0.088c0.068-0.016,0.134-0.037,0.202-0.055c0.2-0.051,0.399-0.103,0.596-0.165    c0.004-0.001,0.008-0.003,0.013-0.004c0.496-0.158,0.983-0.351,1.457-0.584c1.365-0.592,19.018-7.796,56.812-3.937l-24.932,27.149    c-2.467,2.686-3.377,6.455-2.408,9.97c0.97,3.516,3.68,6.286,7.174,7.331c0.346,0.104,30.239,9.271,52.6,33.533l-45.241,10.945    c-3.959,0.958-7.009,4.108-7.856,8.093c-0.848,3.984,0.674,8.107,3.902,10.592c0.283,0.218,25.133,19.622,34.758,47.111    l-27.267,3.116c-13.843,1.574-27.539,1.928-40.714,1.055c-3.433-0.225-6.827-0.533-10.1-0.916    c-57.414-6.659-118.634-31.115-162.481-64.542c11.174-16.95,11.151-37.562-1.269-50.562c-13.516-14.112-37.351-13.745-55.574-0.01    c-6.301-4.433-13.021-8.638-20.074-12.547c-8.853-4.902-18.604-7.025-28.166-6.516c4.616-6.857,9.403-13.475,14.357-19.788    c3.609-4.599,2.807-11.253-1.792-14.861c-4.599-3.611-11.253-2.808-14.862,1.791c-11.584,14.761-22.34,31.002-31.998,48.277    c-1.585,1.598-3.063,3.28-4.39,5.016c-3.227,4.205-6.932,9.057-11.188,14.661c-4.527,5.959-11.17,11.118-19.741,15.333    c-15.861,7.8-32.637,9.741-37.414,10.152c-5.388,0.47-10.156,3.351-13.082,7.906c-2.915,4.538-3.553,10.048-1.752,15.114    c3.225,9.086,10.49,21.964,26.778,31.719c22.625,13.54,55.68,16.798,98.291,9.7c5.734,3.051,17.571,8.223,37.212,11.974    c-9.404,1.798-18.081,6.308-24.665,12.972c-3.733,3.789-6.823,8.48-8.935,13.56c-2.151,5.175-3.287,10.734-3.287,16.076    c0,5.845,4.739,10.585,10.585,10.585h72.211c15.722,0,29.003-13.767,29.003-30.061v-8.072l70.675,2.795    c-4.121,7.045-6.54,15.572-6.54,24.754c0,5.845,4.739,10.585,10.585,10.585h63.372c8.633,0,16.979-6.014,23.501-16.935    c3.159-5.289,5.525-11.094,6.878-16.66c2.691,0.091,5.397,0.139,8.119,0.139c9.493,0,19.15-0.554,28.86-1.659l39.366-4.499    c2.894-0.331,5.523-1.839,7.27-4.169c1.747-2.331,2.455-5.278,1.959-8.148c-4.244-24.574-18.947-44.64-30.538-57.152l42.2-10.209    c3.351-0.812,6.098-3.203,7.361-6.412C512.518,281.137,512.138,277.514,510.238,274.636z M34.455,314.209    c-5.741-4.304-9.303-9.065-11.509-13.264c5.744-0.775,14.538-2.356,24.205-5.47C45.091,302.626,41.323,310.393,34.455,314.209z     M228.021,350.328c-2.865-0.104-5.677,0.951-7.754,2.946c-2.076,1.995-3.25,4.751-3.25,7.631v19.084    c0,4.571-3.806,8.891-7.833,8.891h-58.66c0.898-1.557,1.966-2.977,3.155-4.183c4.739-4.796,11.603-7.545,18.843-7.545    c0.01,0,0.02,0,0.03,0l17.635,0.011c0.002,0,0.004,0,0.006,0c2.806,0,5.498-1.115,7.483-3.098    c1.987-1.986,3.102-4.679,3.102-7.487v-16.787c0-5.506-4.221-10.093-9.71-10.549c-39.241-3.257-55.972-13.515-56.989-14.161    c-2.324-1.682-5.042-2.21-7.873-1.704c-28.542,5.104-52.479,5.249-70.517,0.547c11.215-12.777,14.104-30.837,14.848-39.026    c7.873-4.871,14.347-10.609,19.304-17.133c4.233-5.573,7.915-10.396,11.136-14.591c0.989-1.292,2.115-2.539,3.337-3.697    c9.881-9.336,24.531-11.176,36.451-4.576c5.61,3.108,10.977,6.415,16.047,9.879c-3.67,6.12-6.015,12.782-6.774,19.483    c-0.657,5.809,3.518,11.051,9.327,11.709c5.807,0.658,11.051-3.518,11.708-9.328c0.664-5.862,3.63-11.849,8.408-16.917    c0.404-0.436,0.827-0.856,1.24-1.253c10.002-9.561,24.044-11.803,30.653-4.903c6.467,6.77,3.796,20.514-5.886,30.062    c-0.097,0.097-0.201,0.194-0.362,0.346c-5.512,5.273-12.399,8.503-18.898,8.859c-5.838,0.321-10.31,5.313-9.99,11.149    c0.309,5.64,4.979,10.005,10.56,10.005c0.195,0,0.392-0.005,0.589-0.016c8.981-0.493,17.875-3.726,25.691-9.211    c25.143,19.583,55.14,36.119,87.155,48.418L228.021,350.328z M375.889,388.881h-50.397c2.785-7.027,8.153-12.014,14.016-12.014    h44.831C381.927,382.657,378.267,387.848,375.889,388.881z" />
	</g>
</g>
<g
   style="stroke:#f8f6ff;stroke-opacity:1;fill:#ffffff;fill-opacity:1"
   id="g18">
	<g
   style="stroke:#f8f6ff;stroke-opacity:1;fill:#ffffff;fill-opacity:1"
   id="g16">
		<path
   style="stroke:#f8f6ff;stroke-opacity:1;fill:#ffffff;fill-opacity:1"
   id="path14"
   d="M116.27,264.391c-5.846,0-10.585,4.74-10.585,10.585v5.494c0,5.845,4.739,10.585,10.585,10.585    c5.846,0,10.585-4.74,10.585-10.585v-5.494C126.855,269.13,122.116,264.391,116.27,264.391z" />
	</g>
</g>
<g
   id="g20">
</g>
<g
   id="g22">
</g>
<g
   id="g24">
</g>
<g
   id="g26">
</g>
<g
   id="g28">
</g>
<g
   id="g30">
</g>
<g
   id="g32">
</g>
<g
   id="g34">
</g>
<g
   id="g36">
</g>
<g
   id="g38">
</g>
<g
   id="g40">
</g>
<g
   id="g42">
</g>
<g
   id="g44">
</g>
<g
   id="g46">
</g>
<g
   id="g48">
</g>
</svg>
