<?xml version="1.0" encoding="UTF-8" standalone="no"?>
<svg
   xmlns:dc="http://purl.org/dc/elements/1.1/"
   xmlns:cc="http://creativecommons.org/ns#"
   xmlns:rdf="http://www.w3.org/1999/02/22-rdf-syntax-ns#"
   xmlns:svg="http://www.w3.org/2000/svg"
   xmlns="http://www.w3.org/2000/svg"
   xmlns:sodipodi="http://sodipodi.sourceforge.net/DTD/sodipodi-0.dtd"
   xmlns:inkscape="http://www.inkscape.org/namespaces/inkscape"
   height="308.104"
   width="511.99121"
   inkscape:version="1.0 (4035a4fb49, 2020-05-01)"
   sodipodi:docname="egel-logo.svg"
   xml:space="preserve"
   viewBox="0 0 511.9912 308.104"
   y="0px"
   x="0px"
   id="Layer_1"
   version="1.1"><metadata
   id="metadata55"><rdf:RDF><cc:Work
       rdf:about=""><dc:format>image/svg+xml</dc:format><dc:type
         rdf:resource="http://purl.org/dc/dcmitype/StillImage" /><dc:title></dc:title></cc:Work></rdf:RDF></metadata><defs
   id="defs53" /><sodipodi:namedview
   fit-margin-bottom="0"
   fit-margin-right="0"
   fit-margin-left="0"
   fit-margin-top="0"
   inkscape:current-layer="Layer_1"
   inkscape:window-maximized="0"
   inkscape:window-y="23"
   inkscape:window-x="26"
   inkscape:cy="154.05352"
   inkscape:cx="255.99423"
   inkscape:zoom="1.1222446"
   showgrid="false"
   id="namedview51"
   inkscape:window-height="780"
   inkscape:window-width="1185"
   inkscape:pageshadow="2"
   inkscape:pageopacity="0"
   guidetolerance="10"
   gridtolerance="10"
   objecttolerance="10"
   borderopacity="1"
   bordercolor="#666666"
   pagecolor="#ffffff" />
<g
   transform="translate(-0.00227573,-101.94298)"
   id="g6">
	<g
   id="g4">
		<path
   id="path2"
   d="m 155.543,163.373 c -4.242,-4.02 -10.942,-3.839 -14.964,0.404 l -0.869,0.922 c -4.002,4.26 -3.793,10.96 0.469,14.962 2.043,1.918 4.646,2.87 7.244,2.87 2.821,0 5.634,-1.121 7.718,-3.339 l 0.807,-0.854 c 4.019,-4.244 3.838,-10.943 -0.405,-14.965 z" />
	</g>
</g>
<g
   transform="translate(-0.00227573,-101.94298)"
   id="g12">
	<g
   id="g10">
		<path
   id="path8"
   d="M 510.238,274.636 C 493.064,248.63 467.674,233.638 451.574,226.202 l 28.149,-30.653 c 2.615,-2.846 3.469,-6.894 2.229,-10.555 -1.24,-3.661 -4.377,-6.355 -8.183,-7.028 -31.436,-5.555 -53.81,-4.784 -68.347,-2.617 l 13.642,-39.706 c 1.072,-3.12 0.628,-6.564 -1.202,-9.31 -1.83,-2.747 -4.836,-4.481 -8.13,-4.693 -37.003,-2.37 -63.698,9.531 -79.411,19.744 l -2.742,-29.827 c -0.518,-5.638 -5.38,-9.835 -11.033,-9.605 -38.212,1.781 -70.213,22.859 -90.288,40.165 l 2.78,-22.279 c 0.463,-3.701 -1.057,-7.37 -3.999,-9.662 -2.943,-2.292 -6.873,-2.864 -10.347,-1.513 -0.992,0.386 -24.63,9.769 -55.043,36.663 -4.379,3.873 -4.79,10.563 -0.918,14.941 3.873,4.38 10.563,4.79 14.942,0.918 12.315,-10.89 23.382,-18.609 31.843,-23.812 l -4.101,32.863 c -0.586,4.698 2.022,9.208 6.382,11.053 4.359,1.844 9.417,0.566 12.382,-3.125 0.396,-0.492 37.675,-46.237 87.295,-54.038 l 3.564,38.768 c 0.384,4.182 3.204,7.741 7.188,9.071 3.982,1.328 8.376,0.179 11.197,-2.933 0.242,-0.268 22.482,-24.242 64.847,-26.376 l -15.254,44.398 c -0.008,0.024 -0.013,0.049 -0.021,0.073 -0.095,0.285 -0.178,0.572 -0.248,0.861 -0.015,0.06 -0.031,0.122 -0.044,0.183 -0.061,0.272 -0.11,0.546 -0.149,0.821 -0.012,0.078 -0.024,0.157 -0.034,0.235 -0.031,0.259 -0.05,0.519 -0.061,0.779 -0.004,0.088 -0.011,0.176 -0.013,0.265 -0.005,0.258 0.002,0.518 0.016,0.776 0.004,0.081 0.005,0.163 0.012,0.243 0.02,0.275 0.055,0.549 0.097,0.823 0.008,0.057 0.015,0.114 0.024,0.172 0.052,0.301 0.117,0.599 0.196,0.895 0.006,0.025 0.012,0.051 0.019,0.076 0.086,0.319 0.187,0.632 0.303,0.942 10e-4,0.003 0.002,0.006 0.003,0.01 0.117,0.313 0.25,0.62 0.398,0.923 0.002,0.003 0.003,0.007 0.005,0.011 0.14,0.285 0.293,0.563 0.46,0.838 0.015,0.024 0.029,0.049 0.043,0.073 0.15,0.243 0.313,0.479 0.486,0.713 0.04,0.055 0.079,0.11 0.121,0.164 0.153,0.199 0.317,0.393 0.485,0.583 0.071,0.08 0.142,0.16 0.215,0.238 0.072,0.076 0.134,0.157 0.21,0.232 0.12,0.12 0.245,0.228 0.368,0.34 0.03,0.028 0.059,0.056 0.09,0.083 1.993,1.774 4.493,2.668 6.999,2.675 0.011,0 0.022,0.001 0.034,0.001 0.18,0 0.358,-0.012 0.537,-0.021 0.08,-0.004 0.161,-0.003 0.241,-0.01 0.168,-0.013 0.334,-0.035 0.502,-0.055 0.105,-0.013 0.21,-0.021 0.314,-0.037 0.123,-0.019 0.246,-0.047 0.368,-0.069 0.148,-0.028 0.297,-0.053 0.446,-0.088 0.068,-0.016 0.134,-0.037 0.202,-0.055 0.2,-0.051 0.399,-0.103 0.596,-0.165 0.004,-0.001 0.008,-0.003 0.013,-0.004 0.496,-0.158 0.983,-0.351 1.457,-0.584 1.365,-0.592 19.018,-7.796 56.812,-3.937 l -24.932,27.149 c -2.467,2.686 -3.377,6.455 -2.408,9.97 0.97,3.516 3.68,6.286 7.174,7.331 0.346,0.104 30.239,9.271 52.6,33.533 l -45.241,10.945 c -3.959,0.958 -7.009,4.108 -7.856,8.093 -0.848,3.984 0.674,8.107 3.902,10.592 0.283,0.218 25.133,19.622 34.758,47.111 l -27.267,3.116 c -13.843,1.574 -27.539,1.928 -40.714,1.055 -3.433,-0.225 -6.827,-0.533 -10.1,-0.916 -57.414,-6.659 -118.634,-31.115 -162.481,-64.542 11.174,-16.95 11.151,-37.562 -1.269,-50.562 -13.516,-14.112 -37.351,-13.745 -55.574,-0.01 -6.301,-4.433 -13.021,-8.638 -20.074,-12.547 -8.853,-4.902 -18.604,-7.025 -28.166,-6.516 4.616,-6.857 9.403,-13.475 14.357,-19.788 3.609,-4.599 2.807,-11.253 -1.792,-14.861 -4.599,-3.611 -11.253,-2.808 -14.862,1.791 -11.584,14.761 -22.34,31.002 -31.998,48.277 -1.585,1.598 -3.063,3.28 -4.39,5.016 -3.227,4.205 -6.932,9.057 -11.188,14.661 -4.527,5.959 -11.17,11.118 -19.741,15.333 -15.861,7.8 -32.637,9.741 -37.414,10.152 -5.388,0.47 -10.156,3.351 -13.082,7.906 -2.915,4.538 -3.553,10.048 -1.752,15.114 3.225,9.086 10.49,21.964 26.778,31.719 22.625,13.54 55.68,16.798 98.291,9.7 5.734,3.051 17.571,8.223 37.212,11.974 -9.404,1.798 -18.081,6.308 -24.665,12.972 -3.733,3.789 -6.823,8.48 -8.935,13.56 -2.151,5.175 -3.287,10.734 -3.287,16.076 0,5.845 4.739,10.585 10.585,10.585 h 72.211 c 15.722,0 29.003,-13.767 29.003,-30.061 v -8.072 l 70.675,2.795 c -4.121,7.045 -6.54,15.572 -6.54,24.754 0,5.845 4.739,10.585 10.585,10.585 h 63.372 c 8.633,0 16.979,-6.014 23.501,-16.935 3.159,-5.289 5.525,-11.094 6.878,-16.66 2.691,0.091 5.397,0.139 8.119,0.139 9.493,0 19.15,-0.554 28.86,-1.659 l 39.366,-4.499 c 2.894,-0.331 5.523,-1.839 7.27,-4.169 1.747,-2.331 2.455,-5.278 1.959,-8.148 -4.244,-24.574 -18.947,-44.64 -30.538,-57.152 l 42.2,-10.209 c 3.351,-0.812 6.098,-3.203 7.361,-6.412 1.249,-3.206 0.869,-6.829 -1.031,-9.707 z M 34.455,314.209 c -5.741,-4.304 -9.303,-9.065 -11.509,-13.264 5.744,-0.775 14.538,-2.356 24.205,-5.47 -2.06,7.151 -5.828,14.918 -12.696,18.734 z m 193.566,36.119 c -2.865,-0.104 -5.677,0.951 -7.754,2.946 -2.076,1.995 -3.25,4.751 -3.25,7.631 v 19.084 c 0,4.571 -3.806,8.891 -7.833,8.891 h -58.66 c 0.898,-1.557 1.966,-2.977 3.155,-4.183 4.739,-4.796 11.603,-7.545 18.843,-7.545 0.01,0 0.02,0 0.03,0 l 17.635,0.011 c 0.002,0 0.004,0 0.006,0 2.806,0 5.498,-1.115 7.483,-3.098 1.987,-1.986 3.102,-4.679 3.102,-7.487 v -16.787 c 0,-5.506 -4.221,-10.093 -9.71,-10.549 -39.241,-3.257 -55.972,-13.515 -56.989,-14.161 -2.324,-1.682 -5.042,-2.21 -7.873,-1.704 -28.542,5.104 -52.479,5.249 -70.517,0.547 11.215,-12.777 14.104,-30.837 14.848,-39.026 7.873,-4.871 14.347,-10.609 19.304,-17.133 4.233,-5.573 7.915,-10.396 11.136,-14.591 0.989,-1.292 2.115,-2.539 3.337,-3.697 9.881,-9.336 24.531,-11.176 36.451,-4.576 5.61,3.108 10.977,6.415 16.047,9.879 -3.67,6.12 -6.015,12.782 -6.774,19.483 -0.657,5.809 3.518,11.051 9.327,11.709 5.807,0.658 11.051,-3.518 11.708,-9.328 0.664,-5.862 3.63,-11.849 8.408,-16.917 0.404,-0.436 0.827,-0.856 1.24,-1.253 10.002,-9.561 24.044,-11.803 30.653,-4.903 6.467,6.77 3.796,20.514 -5.886,30.062 -0.097,0.097 -0.201,0.194 -0.362,0.346 -5.512,5.273 -12.399,8.503 -18.898,8.859 -5.838,0.321 -10.31,5.313 -9.99,11.149 0.309,5.64 4.979,10.005 10.56,10.005 0.195,0 0.392,-0.005 0.589,-0.016 8.981,-0.493 17.875,-3.726 25.691,-9.211 25.143,19.583 55.14,36.119 87.155,48.418 z m 147.868,38.553 h -50.397 c 2.785,-7.027 8.153,-12.014 14.016,-12.014 h 44.831 c -2.412,5.79 -6.072,10.981 -8.45,12.014 z" />
	</g>
</g>
<g
   transform="translate(-0.00227573,-101.94298)"
   id="g18">
	<g
   id="g16">
		<path
   id="path14"
   d="m 116.27,264.391 c -5.846,0 -10.585,4.74 -10.585,10.585 v 5.494 c 0,5.845 4.739,10.585 10.585,10.585 5.846,0 10.585,-4.74 10.585,-10.585 v -5.494 c 0,-5.846 -4.739,-10.585 -10.585,-10.585 z" />
	</g>
</g>
<g
   transform="translate(-0.00227573,-101.94298)"
   id="g20">
</g>
<g
   transform="translate(-0.00227573,-101.94298)"
   id="g22">
</g>
<g
   transform="translate(-0.00227573,-101.94298)"
   id="g24">
</g>
<g
   transform="translate(-0.00227573,-101.94298)"
   id="g26">
</g>
<g
   transform="translate(-0.00227573,-101.94298)"
   id="g28">
</g>
<g
   transform="translate(-0.00227573,-101.94298)"
   id="g30">
</g>
<g
   transform="translate(-0.00227573,-101.94298)"
   id="g32">
</g>
<g
   transform="translate(-0.00227573,-101.94298)"
   id="g34">
</g>
<g
   transform="translate(-0.00227573,-101.94298)"
   id="g36">
</g>
<g
   transform="translate(-0.00227573,-101.94298)"
   id="g38">
</g>
<g
   transform="translate(-0.00227573,-101.94298)"
   id="g40">
</g>
<g
   transform="translate(-0.00227573,-101.94298)"
   id="g42">
</g>
<g
   transform="translate(-0.00227573,-101.94298)"
   id="g44">
</g>
<g
   transform="translate(-0.00227573,-101.94298)"
   id="g46">
</g>
<g
   transform="translate(-0.00227573,-101.94298)"
   id="g48">
</g>
</svg>
